<?xml version="1.0" encoding="utf-8"?>
<svg width="29px" height="29px" viewBox="0 0 29 29" version="1.1" xmlns:xlink="http://www.w3.org/1999/xlink" xmlns="http://www.w3.org/2000/svg">
  <desc>Created with Lunacy</desc>
  <path d="M13.75 0C6.15608 0 0 6.15608 0 13.75C0 21.3439 6.15608 27.5 13.75 27.5C21.3439 27.5 27.5 21.3439 27.5 13.75C27.5 6.15608 21.3439 0 13.75 0ZM13.75 3.5C19.4109 3.5 24 8.08908 24 13.75C24 19.4109 19.4109 24 13.75 24C8.08908 24 3.5 19.4109 3.5 13.75C3.5 8.08908 8.08908 3.5 13.75 3.5ZM20.0775 13.0712C20.6618 12.3836 20.6293 11.3512 19.9801 10.7019L19.8745 10.6045C19.1869 10.0202 18.1545 10.0527 17.5052 10.7019L13.4393 14.7678L11.4948 12.8232L11.3892 12.7258C10.7016 12.1415 9.66917 12.174 9.01992 12.8232C8.3365 13.5066 8.3365 14.6147 9.01992 15.2981L12.2019 18.4801L12.3075 18.5775C12.9951 19.1618 14.0275 19.1293 14.6768 18.4801L19.9801 13.1768L20.0775 13.0712Z" transform="translate(0.5 0.5)" id="checkmark" fill="#DD22E7" fill-rule="evenodd" stroke="none" />
</svg>