<?xml version="1.0" encoding="utf-8"?>
<svg width="116px" height="40px" viewBox="0 0 116 40" version="1.1" xmlns:xlink="http://www.w3.org/1999/xlink" xmlns="http://www.w3.org/2000/svg">
  <desc>Created with Lunacy</desc>
  <g id="hapily_logo/primary">
    <path d="M77.3507 7.05882C79.4286 7.05882 80.8485 5.49444 80.8485 3.54849C80.8485 1.56439 79.4286 0 77.3507 0C75.2381 0 73.8182 1.56439 73.8182 3.54849C73.8182 5.49444 75.2381 7.05882 77.3507 7.05882ZM6.13727 18.3323L6.13727 29.4118L0 29.4118L0 2.35294L6.13727 2.35294L6.13727 11.7504C7.35754 9.99523 9.54686 8.78855 12.3104 8.78855C16.8685 8.78855 19.9192 12.0064 19.9192 17.4913L19.9192 29.4118L13.8178 29.4118L13.8178 18.3323C13.8178 15.5533 12.3104 14.0175 9.97754 14.0175C7.64466 14.0175 6.13727 15.5533 6.13727 18.3323ZM90.2222 29.4118L90.2222 2.35294L84.3636 2.35294L84.3636 29.4118L90.2222 29.4118ZM32.2073 30.5882C35.1794 30.5882 37.292 29.1863 38.4021 27.3786L38.4021 30.2931L44.5253 30.2931L44.5253 9.70691L38.4021 9.70691L38.4021 12.6214C37.3278 10.8137 35.2152 9.41177 32.2431 9.41177C27.3374 9.41177 23.4343 13.47 23.4343 19.9631C23.4343 26.4562 27.3374 30.5882 32.2073 30.5882ZM55.3353 40L55.3353 27.3529C56.4453 29.0809 58.558 30.5147 61.4943 30.5147C66.4 30.5147 70.303 26.3971 70.303 19.9265C70.303 13.4559 66.4 9.41177 61.4943 9.41177C58.558 9.41177 56.4453 10.8088 55.3353 12.6103L55.3353 9.70588L49.2121 9.70588L49.2121 40L55.3353 40ZM73.8182 9.41177L79.6768 9.41177L79.6768 29.4118L73.8182 29.4118L73.8182 9.41177ZM116 9.41177L103.043 38.8235L96.2307 38.8235L100.969 28.6741L92.5657 9.41177L99.6367 9.41177L104.412 21.8841L109.151 9.41177L116 9.41177ZM29.2929 19.3734C29.2929 22.7877 31.5211 24.7059 33.9798 24.7059C36.4769 24.7059 38.6667 22.8261 38.6667 19.4118C38.6667 15.9974 36.4769 14.1176 33.9798 14.1176C31.5211 14.1176 29.2929 15.9591 29.2929 19.3734ZM55.0707 19.4118C55.0707 22.8261 57.2898 24.7059 59.7384 24.7059C62.2254 24.7059 64.4445 22.7877 64.4445 19.3734C64.4445 15.9591 62.2254 14.1176 59.7384 14.1176C57.2898 14.1176 55.0707 15.9974 55.0707 19.4118Z" id="hapily_logo" fill="#33DD93" fill-rule="evenodd" stroke="none" />
  </g>
</svg>