<?xml version="1.0" encoding="UTF-8"?>
<svg width="87px" height="31px" viewBox="0 0 87 31" version="1.1" xmlns="http://www.w3.org/2000/svg" xmlns:xlink="http://www.w3.org/1999/xlink">
    <!-- Generator: sketchtool 63.1 (101010) - https://sketch.com -->
    <title>A9A20775-6680-4423-8151-E5DB0D0EFDE9</title>
    <desc>Created with sketchtool.</desc>
    <g id="Landingpage_2" stroke="none" stroke-width="1" fill="none" fill-rule="evenodd">
        <g id="Webpage_scroll" transform="translate(-208.000000, -4743.000000)" fill="#32383A">
            <g id="footer" transform="translate(208.000000, 4688.000000)">
                <g id="hapily_logo/primary">
                    <g transform="translate(0.000000, 55.500000)">
                        <path d="M4.6029484,22.0588235 L4.6029484,13.7492051 C4.6029484,11.6649444 5.73349713,10.5131161 7.48315588,10.5131161 C9.23281463,10.5131161 10.3633634,11.6649444 10.3633634,13.7492051 L10.3633634,22.0588235 L14.9393939,22.0588235 L14.9393939,13.118442 C14.9393939,9.00476948 12.6513787,6.59141494 9.23281463,6.59141494 C7.16014196,6.59141494 5.51815452,7.49642289 4.6029484,8.81279809 L4.6029484,1.76470588 L0,1.76470588 L0,22.0588235 L4.6029484,22.0588235 Z M24.1554767,22.9411765 C26.3845244,22.9411765 27.9690281,21.8897315 28.801564,20.5339209 L28.801564,22.7198196 L33.3939394,22.7198196 L33.3939394,7.28018036 L28.801564,7.28018036 L28.801564,9.46607911 C27.9958841,8.1102685 26.4113804,7.05882353 24.1823327,7.05882353 C20.5030612,7.05882353 17.5757576,10.10248 17.5757576,14.9723304 C17.5757576,19.8421808 20.5030612,22.9411765 24.1554767,22.9411765 Z M25.4848485,18.5294118 C23.6408346,18.5294118 21.969697,17.0907928 21.969697,14.5300512 C21.969697,11.9693095 23.6408346,10.5882353 25.4848485,10.5882353 C27.3576751,10.5882353 29,11.9980818 29,14.5588235 C29,17.1195652 27.3576751,18.5294118 25.4848485,18.5294118 Z M41.5014663,30 L41.5014663,20.5147059 C42.3340022,21.8106618 43.9185059,22.8860294 46.1206976,22.8860294 C49.7999691,22.8860294 52.7272727,19.7977941 52.7272727,14.9448529 C52.7272727,10.0919118 49.7999691,7.05882353 46.1206976,7.05882353 C43.9185059,7.05882353 42.3340022,8.10661765 41.5014663,9.45772059 L41.5014663,7.27941176 L36.9090909,7.27941176 L36.9090909,30 L41.5014663,30 Z M44.8038343,18.5294118 C42.9673469,18.5294118 41.3030303,17.1195652 41.3030303,14.5588235 C41.3030303,11.9980818 42.9673469,10.5882353 44.8038343,10.5882353 C46.6690167,10.5882353 48.3333333,11.9693095 48.3333333,14.5300512 C48.3333333,17.0907928 46.6690167,18.5294118 44.8038343,18.5294118 Z M58.012987,5.29411765 C59.5714286,5.29411765 60.6363636,4.12082671 60.6363636,2.66136725 C60.6363636,1.17329094 59.5714286,0 58.012987,0 C56.4285714,0 55.3636364,1.17329094 55.3636364,2.66136725 C55.3636364,4.12082671 56.4285714,5.29411765 58.012987,5.29411765 Z M59.7575758,22.0588235 L59.7575758,7.05882353 L55.3636364,7.05882353 L55.3636364,22.0588235 L59.7575758,22.0588235 Z M67.6666667,22.0588235 L67.6666667,1.76470588 L63.2727273,1.76470588 L63.2727273,22.0588235 L67.6666667,22.0588235 Z M77.2819666,29.1176471 L87,7.05882353 L81.8633252,7.05882353 L78.3093015,16.4130512 L74.7275121,7.05882353 L69.4242424,7.05882353 L75.7270812,21.5056107 L72.1730576,29.1176471 L77.2819666,29.1176471 Z" id="hapily_logo"></path>
                    </g>
                </g>
            </g>
        </g>
    </g>
</svg>