<?xml version="1.0" encoding="utf-8"?>
<!-- Generator: Adobe Illustrator 24.0.2, SVG Export Plug-In . SVG Version: 6.00 Build 0)  -->
<!DOCTYPE svg PUBLIC "-//W3C//DTD SVG 1.1//EN" "http://www.w3.org/Graphics/SVG/1.1/DTD/svg11.dtd" [
	<!ENTITY ns_extend "http://ns.adobe.com/Extensibility/1.0/">
	<!ENTITY ns_ai "http://ns.adobe.com/AdobeIllustrator/10.0/">
	<!ENTITY ns_graphs "http://ns.adobe.com/Graphs/1.0/">
	<!ENTITY ns_vars "http://ns.adobe.com/Variables/1.0/">
	<!ENTITY ns_imrep "http://ns.adobe.com/ImageReplacement/1.0/">
	<!ENTITY ns_sfw "http://ns.adobe.com/SaveForWeb/1.0/">
	<!ENTITY ns_custom "http://ns.adobe.com/GenericCustomNamespace/1.0/">
	<!ENTITY ns_adobe_xpath "http://ns.adobe.com/XPath/1.0/">
]>
<svg version="1.1" id="Capa_1" xmlns:x="&ns_extend;" xmlns:i="&ns_ai;" xmlns:graph="&ns_graphs;"
	 xmlns="http://www.w3.org/2000/svg" xmlns:xlink="http://www.w3.org/1999/xlink" x="0px" y="0px" viewBox="0 0 82.5 82.5"
	 style="enable-background:new 0 0 82.5 82.5;" xml:space="preserve">
<style type="text/css">
	.st0{clip-path:url(#SVGID_2_);fill:#33DD93;}
	.st1{clip-path:url(#SVGID_2_);fill:#FFFFFF;}
</style>
<metadata>
	<sfw  xmlns="&ns_sfw;">
		<slices></slices>
		<sliceSourceBounds  bottomLeftOrigin="true" height="82.5" width="82.5" x="354.8" y="1405.7"></sliceSourceBounds>
	</sfw>
</metadata>
<g>
	<defs>
		<rect id="SVGID_1_" width="82.5" height="82.5"/>
	</defs>
	<clipPath id="SVGID_2_">
		<use xlink:href="#SVGID_1_"  style="overflow:visible;"/>
	</clipPath>
	<ellipse transform="matrix(0.9871 -0.1602 0.1602 0.9871 -6.0749 7.1401)" class="st0" cx="41.2" cy="41.3" rx="41.3" ry="41.3"/>
	<path class="st1" d="M53.2,44.8c-0.4-1.1-1.1-2-2-2.9c-0.9-0.9-1.9-1.7-3.2-2.3c1.3-1.1,2.3-2.2,3-3.4c0.7-1.2,1.1-2.6,1.1-4.2
		c0-1.2-0.2-2.4-0.7-3.5c-0.5-1.1-1.2-2-2.2-2.8c-1-0.8-2.1-1.4-3.4-1.9c-1.3-0.4-2.7-0.6-4.3-0.6c-1.8,0-3.4,0.2-4.9,0.8
		c-1.4,0.5-2.7,1.2-3.7,2c-1,0.8-1.7,1.7-2.2,2.7c-0.5,0.9-0.8,1.8-0.8,2.7c0,0.9,0.3,1.6,0.8,2.1s1.1,0.8,1.8,0.8
		c0.5,0,1-0.1,1.5-0.3c0.4-0.2,0.7-0.5,0.9-0.8c0.3-0.6,0.6-1.3,0.9-2c0.3-0.7,0.7-1.3,1.1-1.7c0.4-0.4,0.9-0.8,1.5-1.1
		c0.6-0.3,1.5-0.4,2.4-0.4c1.5,0,2.6,0.4,3.5,1.3c0.9,0.9,1.3,2,1.3,3.2c0,1.6-0.5,2.9-1.6,3.8c-1.1,0.9-2.4,1.3-3.9,1.3h-1
		c-1.1,0-2,0.2-2.6,0.7c-0.6,0.5-0.9,1.1-0.9,1.9c0,0.8,0.2,1.4,0.7,1.9c0.5,0.4,1.2,0.7,2.1,0.7c0.2,0,0.6,0,1.3-0.1
		c0.7-0.1,1.2-0.1,1.5-0.1c1.8,0,3.3,0.5,4.3,1.6c1,1.1,1.6,2.6,1.6,4.5c0,1.3-0.3,2.4-0.9,3.4s-1.4,1.7-2.3,2.2
		c-0.9,0.5-1.9,0.7-2.9,0.7c-1.7,0-3.1-0.5-4.1-1.6c-1-1.1-1.9-2.8-2.7-5c-0.1-0.4-0.4-0.7-0.8-1c-0.4-0.3-0.9-0.4-1.3-0.4
		c-0.9,0-1.7,0.3-2.3,0.9c-0.6,0.6-0.9,1.3-0.9,2.3c0,0.7,0.2,1.7,0.8,2.8C30.2,53.9,31,55,32,56c1,1,2.3,1.9,3.8,2.6
		c1.5,0.7,3.3,1,5.2,1c1.9,0,3.7-0.3,5.3-0.9c1.6-0.6,2.9-1.4,4.1-2.5c1.1-1.1,2-2.3,2.6-3.7c0.6-1.4,0.9-2.8,0.9-4.3
		C53.8,47.1,53.6,45.9,53.2,44.8"/>
</g>
</svg>
