<?xml version="1.0" encoding="utf-8"?>
<!-- Generator: Adobe Illustrator 24.0.2, SVG Export Plug-In . SVG Version: 6.00 Build 0)  -->
<!DOCTYPE svg PUBLIC "-//W3C//DTD SVG 1.1//EN" "http://www.w3.org/Graphics/SVG/1.1/DTD/svg11.dtd" [
	<!ENTITY ns_extend "http://ns.adobe.com/Extensibility/1.0/">
	<!ENTITY ns_ai "http://ns.adobe.com/AdobeIllustrator/10.0/">
	<!ENTITY ns_graphs "http://ns.adobe.com/Graphs/1.0/">
	<!ENTITY ns_vars "http://ns.adobe.com/Variables/1.0/">
	<!ENTITY ns_imrep "http://ns.adobe.com/ImageReplacement/1.0/">
	<!ENTITY ns_sfw "http://ns.adobe.com/SaveForWeb/1.0/">
	<!ENTITY ns_custom "http://ns.adobe.com/GenericCustomNamespace/1.0/">
	<!ENTITY ns_adobe_xpath "http://ns.adobe.com/XPath/1.0/">
]>
<svg version="1.1" id="Capa_1" xmlns:x="&ns_extend;" xmlns:i="&ns_ai;" xmlns:graph="&ns_graphs;"
	 xmlns="http://www.w3.org/2000/svg" xmlns:xlink="http://www.w3.org/1999/xlink" x="0px" y="0px" viewBox="0 0 87 87"
	 style="enable-background:new 0 0 87 87;" xml:space="preserve">
<style type="text/css">
	.st0{clip-path:url(#SVGID_2_);fill:#33DD93;}
	.st1{clip-path:url(#SVGID_2_);fill:#FFFFFF;}
</style>
<metadata>
	<sfw  xmlns="&ns_sfw;">
		<slices></slices>
		<sliceSourceBounds  bottomLeftOrigin="true" height="87" width="87" x="352.5" y="1761.3"></sliceSourceBounds>
	</sfw>
</metadata>
<g>
	<defs>
		<rect id="SVGID_1_" width="87" height="87"/>
	</defs>
	<clipPath id="SVGID_2_">
		<use xlink:href="#SVGID_1_"  style="overflow:visible;"/>
	</clipPath>
	<ellipse transform="matrix(0.9871 -0.1602 0.1602 0.9871 -6.4062 7.5296)" class="st0" cx="43.5" cy="43.5" rx="43.5" ry="43.5"/>
	<path class="st1" d="M56.1,57.1c-0.7-0.5-1.7-0.8-3.1-0.8H39.6c0.4-0.6,0.8-1.2,1.3-1.7c1-1.2,2.7-2.8,5.3-4.9
		c2.6-2.1,4.4-3.6,5.5-4.6c1.1-1,2.2-2.3,3.2-4.1c1.1-1.7,1.6-3.7,1.6-5.8c0-1.4-0.2-2.7-0.8-3.9c-0.5-1.3-1.2-2.4-2.1-3.3
		c-0.9-1-2-1.7-3.2-2.3c-1.8-0.8-4.1-1.2-6.7-1.2c-2.2,0-4.1,0.3-5.7,1c-1.6,0.6-2.9,1.5-4,2.5c-1.1,1.1-1.8,2.2-2.4,3.5
		c-0.5,1.3-0.8,2.5-0.8,3.7c0,1,0.3,1.8,0.8,2.3s1.3,0.8,2.1,0.8c1,0,1.7-0.3,2.2-0.9s1-1.5,1.4-2.6c0.4-1.1,0.7-1.8,0.9-2.1
		c1.3-2,3.1-2.9,5.3-2.9c1.1,0,2,0.2,2.9,0.7c0.9,0.5,1.6,1.2,2.1,2c0.5,0.9,0.8,1.8,0.8,2.9c0,1-0.2,2-0.7,3.1
		c-0.5,1.1-1.2,2.1-2.1,3.1c-0.9,1-2.1,2-3.5,3c-0.8,0.5-2.1,1.6-3.9,3.3c-1.8,1.7-3.9,3.7-6.2,6.1c-0.5,0.6-1.1,1.4-1.5,2.4
		s-0.7,1.8-0.7,2.5c0,1,0.4,1.8,1.1,2.5c0.7,0.7,1.7,1.1,3,1.1h18.9c1.1,0,2-0.3,2.5-0.9c0.6-0.6,0.8-1.3,0.8-2.1
		C57.1,58.4,56.8,57.6,56.1,57.1"/>
</g>
</svg>
