<?xml version="1.0" encoding="UTF-8"?>
<svg width="36px" height="32px" viewBox="0 0 36 32" version="1.1" xmlns="http://www.w3.org/2000/svg" xmlns:xlink="http://www.w3.org/1999/xlink">
    <!-- Generator: sketchtool 63.1 (101010) - https://sketch.com -->
    <title>7E71FAC9-FA2A-4EB4-8734-62EE81431B00</title>
    <desc>Created with sketchtool.</desc>
    <g id="Landingpage_2" stroke="none" stroke-width="1" fill="none" fill-rule="evenodd">
        <g id="Webpage_scroll" transform="translate(-1197.000000, -4740.000000)" fill="#32383A">
            <g id="footer" transform="translate(208.000000, 4688.000000)">
                <g id="social">
                    <g transform="translate(848.000000, 52.000000)">
                        <path d="M176.2,32 L168.42032,32 L168.42032,20.75072 C168.42032,17.8062368 167.203386,15.79612 164.527375,15.79612 C162.480527,15.79612 161.342239,17.1525904 160.812418,18.4598832 C160.613734,18.929116 160.644779,19.5827624 160.644779,20.2364088 L160.644779,32 L152.937535,32 C152.937535,32 153.036877,12.0729976 152.937535,10.2616376 L160.644779,10.2616376 L160.644779,13.6733048 C161.100094,12.1815968 163.562935,10.0526352 167.493133,10.0526352 C172.369144,10.0526352 176.2,13.179484 176.2,19.9126592 L176.2,32 L176.2,32 Z M145.143368,7.5425496 L145.093697,7.5425496 C142.61016,7.5425496 141,5.8807712 141,3.7743488 C141,1.6269448 142.657761,0 145.190969,0 C147.722107,0 149.278457,1.6228472 149.328128,3.7682016 C149.328128,5.874624 147.722107,7.5425496 145.143368,7.5425496 L145.143368,7.5425496 L145.143368,7.5425496 Z M141.887865,10.2616376 L148.748636,10.2616376 L148.748636,32 L141.887865,32 L141.887865,10.2616376 L141.887865,10.2616376 Z" id="linkedin-black"></path>
                    </g>
                </g>
            </g>
        </g>
    </g>
</svg>