<?xml version="1.0" encoding="UTF-8"?>
<svg xmlns="http://www.w3.org/2000/svg" xmlns:xlink="http://www.w3.org/1999/xlink" width="1200pt" height="1407pt" viewBox="0 0 1200 1407" version="1.1">
<defs>
<filter id="alpha" filterUnits="objectBoundingBox" x="0%" y="0%" width="100%" height="100%">
  <feColorMatrix type="matrix" in="SourceGraphic" values="0 0 0 0 1 0 0 0 0 1 0 0 0 0 1 0 0 0 1 0"/>
</filter>
<mask id="mask0">
  <g filter="url(#alpha)">
<rect x="0" y="0" width="1200" height="1407" style="fill:rgb(0%,0%,0%);fill-opacity:0.67451;stroke:none;"/>
  </g>
</mask>
<clipPath id="clip1">
  <rect x="0" y="0" width="1200" height="1407"/>
</clipPath>
<g id="surface5" clip-path="url(#clip1)">
<path style="fill:none;stroke-width:1;stroke-linecap:butt;stroke-linejoin:miter;stroke:rgb(67.45098%,80.784314%,75.294118%);stroke-opacity:1;stroke-miterlimit:4;" d="M 326.897995 180.537896 L 320.689842 186.593314 C 301.345282 205.73275 282.116691 227.069145 264.058135 250.229024 C 206.27393 324.336779 172.014964 401.793678 172.048851 477.971015 C 172.082738 554.148353 206.410322 631.636572 264.262079 705.794188 C 284.268059 731.439683 305.706328 754.856681 327.149778 775.535427 L 333.365017 769.489072 C 349.944389 753.083498 366.442181 735.062936 382.188253 715.664908 L 389.998846 705.847834 C 447.780929 631.745608 482.040603 554.286865 482.006716 478.109528 C 481.972121 401.934033 447.642695 324.445107 389.791646 250.285648 C 369.78269 224.636897 348.342579 201.219191 326.897995 180.537896 Z M 326.897995 180.537896 " transform="matrix(-1.848674,-0.709175,-0.70964,1.847465,2293.897808,43.399934)"/>
</g>
<mask id="mask1">
  <g filter="url(#alpha)">
<rect x="0" y="0" width="1200" height="1407" style="fill:rgb(0%,0%,0%);fill-opacity:0.67451;stroke:none;"/>
  </g>
</mask>
<clipPath id="clip2">
  <rect x="0" y="0" width="1200" height="1407"/>
</clipPath>
<g id="surface8" clip-path="url(#clip2)">
<path style="fill:none;stroke-width:1;stroke-linecap:butt;stroke-linejoin:miter;stroke:rgb(67.45098%,80.784314%,75.294118%);stroke-opacity:1;stroke-miterlimit:4;" d="M 767.905405 180.537461 L 761.699106 186.593301 C 742.353801 205.733555 723.125073 227.070661 705.064809 250.228824 C 647.282136 324.336301 613.021811 401.794672 613.0543 477.969838 C 613.089207 554.146398 647.419993 631.636666 705.270413 705.79429 C 725.276535 731.441057 746.71394 754.856082 768.156017 775.53529 L 774.372496 769.486934 C 790.952372 753.082946 807.44831 735.061528 823.195452 715.664136 L 831.007679 705.847089 C 888.78756 631.744444 923.047884 554.286074 923.013488 478.111419 C 922.980489 401.934348 888.649703 324.444079 830.799283 250.286455 C 810.790743 224.638294 789.3499 201.218064 767.905405 180.537461 Z M 767.905405 180.537461 " transform="matrix(0.512513,-1.911473,1.912724,0.512178,-735.993163,2314.082286)"/>
</g>
</defs>
<g id="surface1">
<path style="fill:none;stroke-width:1;stroke-linecap:butt;stroke-linejoin:miter;stroke:rgb(67.45098%,80.784314%,75.294118%);stroke-opacity:1;stroke-miterlimit:4;" d="M 546.199005 2.568077 L 540.010276 8.636875 C 520.717688 27.824843 501.537689 49.215165 483.524357 72.430271 C 425.884681 146.716647 391.694819 224.352171 391.696047 300.685808 C 391.695517 377.02034 425.884431 454.652503 483.524419 528.94041 C 503.456178 554.627835 524.818322 578.082176 546.18276 598.794884 L 552.381243 592.732193 C 568.917756 576.286624 585.370968 558.221941 601.078342 538.776027 L 608.869781 528.935247 C 666.507734 454.654179 700.695838 377.019552 700.69461 300.685915 C 700.695141 224.351382 666.507088 146.716565 608.866238 72.431312 C 588.931791 46.738611 567.56875 23.282511 546.199005 2.568077 Z M 546.199005 2.568077 " transform="matrix(-1.764369,0.898403,0.898991,1.763215,1497.337327,-442.047474)"/>
<path style="fill:none;stroke-width:1;stroke-linecap:butt;stroke-linejoin:miter;stroke:rgb(67.45098%,80.784314%,75.294118%);stroke-opacity:1;stroke-miterlimit:4;" d="M 249.994967 490.978817 C 231.299281 449.352447 221.070119 407.362543 221.050818 365.76642 C 221.017671 289.497243 255.309141 211.937665 313.176571 137.738184 C 331.249642 114.563359 350.49619 93.213173 369.859076 74.058311 L 376.411907 67.666381 L 374.661825 65.981518 C 396.822573 87.168671 419.032066 111.291204 439.710999 137.795157 C 497.645198 212.046997 532.006022 289.636244 532.039169 365.905421 C 532.068204 429.873185 507.952153 494.746575 466.031113 557.785757 " transform="matrix(-1.912724,-0.512178,-0.512513,1.911473,1993.425576,42.861382)"/>
<use xlink:href="#surface5" mask="url(#mask0)"/>
<path style="fill:none;stroke-width:1;stroke-linecap:butt;stroke-linejoin:miter;stroke:rgb(67.45098%,80.784314%,75.294118%);stroke-opacity:1;stroke-miterlimit:4;" d="M 554.000776 478.266197 C 535.003475 436.317206 524.614355 393.98401 524.632446 352.04245 C 524.664755 275.833124 559.048256 198.304223 617.026123 124.113157 C 635.13386 100.94074 654.41435 79.589622 673.807706 60.432846 L 680.371597 54.040074 L 678.620265 52.358464 C 700.78112 73.509789 722.986033 97.596064 743.659399 124.059956 C 801.574233 198.204617 835.89452 275.703386 835.862211 351.912713 C 835.835781 415.072002 812.216235 479.137996 771.125747 541.458453 M 680.12364 649.900076 L 681.874392 651.596699 " transform="matrix(0.70964,-1.847465,1.848674,0.709175,-519.869486,1796.822459)"/>
<use xlink:href="#surface8" mask="url(#mask1)"/>
</g>
</svg>
