<?xml version="1.0" encoding="utf-8"?>
<svg width="46px" height="59px" viewBox="0 0 46 59" version="1.1" xmlns:xlink="http://www.w3.org/1999/xlink" xmlns="http://www.w3.org/2000/svg">
  <desc>Created with Lunacy</desc>
  <g id="medal_icon" transform="translate(0.5 0.5)">
    <path d="M7.78575 0L0.0745951 17.3672C-0.191391 17.966 0.290964 18.6293 0.935651 18.5512L5.25618 18.029L7.74608 21.6385C8.11738 22.1768 8.92738 22.0999 9.19315 21.5012L17 3.91815L7.78575 0Z" transform="translate(3 36)" id="Path" fill="#33DD93" stroke="none" />
    <path d="M9.2143 0L16.9254 17.3672C17.1914 17.966 16.709 18.6293 16.0644 18.5512L11.7439 18.029L9.25386 21.6385C8.88256 22.1768 8.07257 22.0999 7.8068 21.5012L0 3.91815L9.2143 0Z" transform="translate(25 36)" id="Path" fill="#3F9B73" stroke="none" />
    <path d="M9.91914 12.7939L4.03351 0.412873L3.8373 0C3.8373 0 2.67115 0.412873 1.78836 1.94824C1.36489 2.68469 0.709715 3.22648 0.274374 3.53115C0.0185865 3.71031 -0.0708312 4.0323 0.0593398 4.30676L4.41312 13.4776L8.98492 13.9937C9.68444 14.0725 10.2075 13.4007 9.91914 12.7939Z" transform="translate(32 41)" id="Path" fill="#33DD93" stroke="none" />
    <path d="M7.78575 0L0.0745951 17.7813C-0.191391 18.3945 0.290964 19.0734 0.935651 18.9936L5.15054 18.472L9.03789 9.49656C9.24398 9.02064 9.76722 8.82323 10.2442 8.99182C10.6744 9.14383 11.1293 9.22572 11.5939 9.22572C11.8143 9.22572 12.0369 9.20776 12.2549 9.17219L14.5902 8.79189C14.5987 8.79167 14.6068 8.79132 14.6145 8.79132C14.6858 8.79132 14.7268 8.80448 14.763 8.82735L14.8797 8.90089L17 4.01148L7.78575 0Z" transform="translate(3 36)" id="Path" fill="#3F9B73" stroke="none" />
    <path d="M44.6567 23.1953L43.3727 25.2544C43.083 25.7189 42.9714 26.2691 43.0578 26.8066L43.4406 29.1851C43.5775 30.0367 43.2152 30.8917 42.5021 31.3987L40.5117 32.8144C40.061 33.1349 39.7416 33.6016 39.6106 34.1311L39.031 36.4728C38.8239 37.3092 38.1562 37.9621 37.3008 38.1644L34.906 38.731C34.3644 38.8591 33.887 39.1715 33.5593 39.6121L32.1119 41.5577C31.5932 42.2549 30.7188 42.6093 29.8477 42.4753L27.4161 42.1011C26.8663 42.0165 26.3037 42.1255 25.8284 42.4089L23.7229 43.6643C22.9721 44.1119 22.0285 44.1119 21.2779 43.6643L19.172 42.4088C18.6969 42.1256 18.1343 42.0165 17.5845 42.101L15.1519 42.4752C14.281 42.6091 13.4066 42.2548 12.888 41.5576L11.4402 39.6114C11.1123 39.1707 10.6351 38.8584 10.0935 38.7303L7.6986 38.1637C6.84324 37.9612 6.1755 37.3083 5.96853 36.4719L5.38908 34.1303C5.25809 33.6008 4.93855 33.1339 4.48802 32.8135L2.49804 31.3981C1.78495 30.8909 1.42259 30.0359 1.55956 29.1842L1.9423 26.8066C2.02886 26.2691 1.91732 25.7189 1.62748 25.2542L0.343337 23.1953C-0.114446 22.4613 -0.114446 21.5386 0.343337 20.8047L1.62736 18.7456C1.91697 18.2811 2.02863 17.7309 1.94218 17.1934L1.55945 14.8149C1.42247 13.9633 1.78483 13.1083 2.49792 12.6013L4.48836 11.1856C4.93901 10.8651 5.25843 10.3984 5.38943 9.86889L5.96899 7.52718C6.17607 6.69082 6.84381 6.03792 7.69918 5.83556L10.094 5.26898C10.6356 5.1409 11.113 4.82847 11.4408 4.38795L12.8882 2.4423C13.4069 1.74505 14.2814 1.39075 15.1524 1.52468L17.584 1.89891C18.1338 1.98355 18.6964 1.87449 19.1717 1.59109L21.2773 0.335708C22.028 -0.111903 22.9717 -0.111903 23.7223 0.335708L25.8283 1.5912C26.3033 1.87437 26.866 1.98355 27.4157 1.89902L29.8483 1.52479C30.7192 1.39086 31.5937 1.74517 32.1122 2.44241L33.5601 4.38862C33.8879 4.82925 34.3651 5.14158 34.9067 5.26966L37.3016 5.83635C38.157 6.03882 38.8247 6.69173 39.0317 7.52808L39.6112 9.86968C39.7422 10.3992 40.0617 10.8661 40.5122 11.1865L42.5021 12.6017C43.2152 13.1089 43.5775 13.9639 43.4406 14.8156L43.0578 17.1932C42.9713 17.7307 43.0828 18.2809 43.3727 18.7456L44.6566 20.8043C45.1145 21.5387 45.1145 22.4613 44.6567 23.1953Z" id="Path" fill="#FFC850" stroke="none" />
    <path d="M8.88518 16.1091C8.88518 9.93497 11.2047 4.30404 15.0167 0.0286879L15.0143 0.0283463C14.1512 -0.107383 13.2847 0.251183 12.7709 0.956587L11.3367 2.925C11.0119 3.37079 10.5389 3.68677 10.0023 3.81635L7.62929 4.38955C6.78173 4.59417 6.12008 5.25483 5.91489 6.10097L5.34061 8.47008C5.21081 9.00582 4.89419 9.47803 4.44777 9.80221L2.47537 11.2344C1.76889 11.7474 1.40972 12.6124 1.54545 13.4739L1.9247 15.8802C2.01047 16.424 1.89983 16.9805 1.61275 17.4505L0.340206 19.5337C-0.113402 20.2763 -0.113402 21.2098 0.340206 21.9523L1.61241 24.0352C1.8996 24.5052 2.01001 25.0619 1.92435 25.6058L1.54511 28.0112C1.40915 28.8728 1.76832 29.7379 2.47491 30.2508L4.44663 31.6826C4.89316 32.0069 5.20967 32.4791 5.33947 33.0148L5.91364 35.3838C6.1186 36.23 6.78036 36.8905 7.62792 37.0954L10.001 37.6687C10.5376 37.7983 11.0106 38.1143 11.3354 38.56L12.7698 40.529C13.2837 41.2343 14.1501 41.5929 15.013 41.4574L17.4233 41.0788C17.9681 40.9931 18.5255 41.1035 18.9964 41.3902L21.0832 42.6604C21.8272 43.1132 22.7621 43.1132 23.5059 42.6604L25.5922 41.3903C26.0631 41.1036 26.6207 40.9934 27.1654 41.0789L29.575 41.4575C30.4381 41.5931 31.3046 41.2346 31.8184 40.5292L32 40.28C19.1352 39.6931 8.88518 29.0974 8.88518 16.1091Z" transform="translate(0 2)" id="Path" fill="#E1A546" stroke="none" />
    <path d="M16.5 33C25.6127 33 33 25.6127 33 16.5C33 7.3873 25.6127 0 16.5 0C7.3873 0 0 7.3873 0 16.5C0 25.6127 7.3873 33 16.5 33Z" transform="translate(6 6)" id="Oval" fill="#FFDC64" stroke="none" />
    <path d="M18.5277 19.5427C12.3758 18.5612 7.43908 13.6245 6.45752 7.47255C6.11177 5.30485 6.25247 3.21489 6.77912 1.28343C7.03904 0.330515 5.90661 -0.398175 5.15424 0.241681C1.64674 3.22413 -0.436749 7.82777 0.0775396 12.9C0.767417 19.7051 6.29498 25.2326 13.1001 25.9225C18.1723 26.4367 22.776 24.3534 25.7584 20.8458C26.3981 20.0933 25.6695 18.961 24.7166 19.2209C22.7854 19.7479 20.6954 19.8886 18.5277 19.5427Z" transform="translate(8 11)" id="Path" fill="#FFC850" stroke="none" />
    <path d="M11.5 17.5981L5.34486 20.8931C4.70444 21.236 3.93832 20.7034 4.08133 20.0152L5.45606 13.3985L0.277164 8.81846C-0.261644 8.34187 0.0310286 7.48049 0.75973 7.39785L7.76459 6.60357L10.719 0.477963C11.0263 -0.159321 11.9736 -0.159321 12.281 0.477963L15.2354 6.60357L22.2403 7.39785C22.969 7.48049 23.2616 8.34187 22.7228 8.81846L17.5439 13.3985L18.9187 20.0152C19.0617 20.7034 18.2954 21.236 17.6551 20.8931L11.5 17.5981Z" transform="translate(11 11)" id="Path" fill="#FFFFFF" stroke="none" />
    <g id="Group" transform="translate(11 11)">
      <path d="M11.5912 0C11.28 0.00522222 10.9708 0.159667 10.8184 0.470889L7.83654 6.55756L0.76677 7.34678C0.0313161 7.42889 -0.264069 8.28478 0.279732 8.75822L5.50662 13.3092L4.11915 19.8837C3.97482 20.5676 4.74815 21.0967 5.39439 20.756L6.37767 20.2379L8.04436 13.0632C8.12036 12.7359 8.03079 12.3939 7.80184 12.1373L6.03638 10.1599C5.73816 9.826 5.91306 9.31355 6.36197 9.20567L9.18023 8.52811C9.61086 8.42455 9.93917 8.09622 10.0231 7.68533L11.5912 0Z" transform="translate(0.07666529 0.1081111)" id="Path" fill="#FFFAB4" stroke="none" />
      <path d="M7.21021 4.1574L3.78135 0.570287C3.21725 -0.0198244 2.29782 -0.170491 1.55517 0.205398L0 0.992509L6.21217 4.26651C6.56538 4.45273 6.95152 4.37406 7.21021 4.1574Z" transform="translate(11.68323 16.59749)" id="Path" fill="#FFFAB4" stroke="none" />
    </g>
  </g>
</svg>