<?xml version="1.0" encoding="UTF-8"?>
<svg width="40px" height="48px" viewBox="0 0 40 48" version="1.1" xmlns="http://www.w3.org/2000/svg" xmlns:xlink="http://www.w3.org/1999/xlink">
    <!-- Generator: sketchtool 63.1 (101010) - https://sketch.com -->
    <title>9892B6A1-D77F-4EB4-8959-FD918B8CBB83</title>
    <desc>Created with sketchtool.</desc>
    <g id="email-report" stroke="none" stroke-width="1" fill="none" fill-rule="evenodd">
        <g id="report" transform="translate(-700.000000, -1583.000000)" fill="#000000" fill-rule="nonzero">
            <g id="Partnerschaft" transform="translate(320.000000, 1583.000000)">
                <g id="Partnerschaft-title" transform="translate(321.000000, 0.000000)">
                    <g id="ring_icon" transform="translate(59.000000, 0.000000)">
                        <path d="M39.5044231,25.9867934 C39.4949017,25.977272 34.3247159,20.7986633 34.1998375,20.7019832 C33.5908264,20.2314004 32.7203397,20.2123574 32.0908206,20.6818416 C29.9601973,22.270837 29.761344,22.3440794 29.625113,22.6110482 L29.625113,22.6114144 C29.4811916,22.8922993 29.5822662,23.1435209 29.5375882,23.7309255 C28.817981,23.4467447 28.0731051,23.229947 27.3121159,23.0838282 C26.405008,22.9087788 25.4825191,22.8344377 24.5607627,22.8611711 C24.3487257,20.5672171 23.395475,18.3959442 21.8350442,16.6820704 C20.4295212,15.1381192 18.6101784,14.0482713 16.6135888,13.5355741 L18.0835651,12.0260469 C22.114098,13.4308374 25.1873519,16.8366121 26.1537863,21.0077705 C26.2292261,21.3326009 26.5185338,21.5523283 26.8382372,21.5523283 C26.8909718,21.5523283 26.9440725,21.5464689 26.9975395,21.5340176 C27.3758368,21.446493 27.6113114,21.0685618 27.5237867,20.6902644 C26.4976597,16.262025 23.3376135,12.6094231 19.1547361,10.9263112 C19.1869628,10.8929859 19.7809593,10.2832424 19.7439718,10.3213284 C19.8948513,10.1664206 19.9673613,9.94852433 19.9355008,9.72989549 L19.5128918,6.82693029 C19.3858161,5.9564436 18.626658,5.2998249 17.7466497,5.2998249 C9.67679473,5.31960042 9.99686426,5.22694863 9.49808311,5.43825312 C8.9344823,5.67482634 8.50857733,6.19448166 8.41629192,6.82693029 L8.41629192,6.82729658 C7.81130905,10.9805106 7.82046443,9.73282519 8.77408135,10.9263112 C7.83767634,11.3024113 6.94411824,11.7806846 6.10768936,12.3538069 C5.78761973,12.5731681 5.70558817,13.0107918 5.92531557,13.3312276 C6.06154656,13.5300809 6.28200634,13.637015 6.5057621,13.637015 C6.64272556,13.637015 6.78152006,13.5970977 6.90273627,13.5139676 C7.81570369,12.8881107 8.80374452,12.3889633 9.8452524,12.0260469 L11.3144963,13.5344755 C6.6760509,14.7210035 3.32337696,18.9375722 3.32337696,23.8433527 C3.32337696,27.05357 4.75087259,30.0590746 7.23928543,32.0882572 C13.0844005,36.8552432 21.870933,34.1742027 24.1169133,27.0367242 C24.7632781,26.9748344 25.4118401,26.9876518 26.054909,27.0751765 C24.7446012,31.9923095 20.5829642,35.514906 15.8075554,36.2202309 C8.2027901,37.3441366 1.45313054,31.4345681 1.45313054,23.8433527 C1.45313054,20.6726862 2.64112336,17.6481386 4.79848024,15.3278173 C5.0628855,15.0436365 5.04640597,14.5986885 4.7622252,14.333917 C4.47767824,14.0695117 4.03273023,14.0859912 3.76832488,14.370172 C1.36853547,16.9519689 0.0468751788,20.3159955 0.0468751788,23.8433527 C0.0468751788,32.1029057 7.19314263,38.5010013 15.34979,37.6975315 C15.7676383,39.4721964 16.6641261,41.0809672 17.9667433,42.3832184 C19.8249048,44.2410135 22.2953731,45.2645769 24.9225804,45.2645769 L24.9229466,45.2645769 C27.550154,45.2645769 30.0206223,44.2410135 31.8780513,42.3832184 C33.5278378,40.7330655 34.5396825,38.5453131 34.7268171,36.2227944 C34.8769641,34.3562102 34.4913425,32.4907245 33.631476,30.8530229 L35.1021847,30.8336137 C37.010151,35.054577 36.1176915,40.0229798 32.8166535,43.3236516 C30.7083691,45.4326684 27.9046475,46.5939277 24.9225804,46.5939277 C21.9401472,46.5939277 19.1360594,45.4323022 17.0274087,43.3236516 C15.9368284,42.2323388 15.0993008,40.9586523 14.5371648,39.5373823 C14.3947083,39.1762969 13.9860153,38.9997826 13.6249299,39.1422392 C13.2638446,39.2850619 13.086964,39.6933887 13.2294206,40.0544741 C13.8626018,41.6551882 14.8055984,43.0896419 16.032776,44.3179181 C18.4072968,46.6924388 21.5644133,48.0001831 24.9225804,48.0001831 C28.2807475,48.0001831 31.4371316,46.6924388 33.8112862,44.3179181 C37.3829551,40.7466154 38.4500978,35.4401987 36.6201348,30.813472 C37.2851764,30.7856399 37.4928188,30.8526568 37.739646,30.7263135 L37.7400122,30.7263135 C38.0564196,30.5644476 38.076195,30.3124935 39.6692187,28.2606058 C40.1822822,27.5717604 40.1116032,26.5943397 39.5044231,25.9867934 Z M33.2202195,29.4518946 L34.9264028,28.6004509 L35.7448874,29.4185693 L33.2202195,29.4518946 Z M33.8779368,27.551985 L31.7242421,28.6268181 L32.7990753,26.4731234 L33.8779368,27.551985 Z M30.8991657,27.1312071 L30.9321248,24.606173 L31.7506094,25.4242913 L30.8991657,27.1312071 Z M33.6259827,25.3107655 C35.178723,23.9122006 35.164807,23.9048763 35.3215459,23.7928153 L36.5582449,25.0295144 C36.4458177,25.1862533 36.4286057,25.1833236 35.0402948,26.7250775 L33.6259827,25.3107655 Z M34.319589,22.7908584 C34.2818691,22.8223527 34.243783,22.8553117 34.2053307,22.8904681 L34.2049644,22.8904681 L32.6302515,24.3154003 L31.3232396,23.0083886 L32.931278,21.8094093 C33.0642131,21.7101658 33.2528123,21.7240819 33.3700003,21.8412698 L34.319589,22.7908584 Z M10.3553862,10.5340978 L11.6481157,10.5340978 L12.3234113,12.5548575 L10.3553862,10.5340978 Z M15.6057725,12.5548575 L16.2807017,10.5340978 L17.5734313,10.5340978 L15.6057725,12.5548575 Z M13.9644087,13.0291024 L13.1309095,10.5344641 L14.797908,10.5344641 L13.9644087,13.0291024 Z M18.121285,7.02981197 L18.4270723,9.12784241 L16.4433,9.12784241 C16.3235486,6.76650528 16.3338025,6.86794607 16.3176892,6.70608027 L17.7466497,6.70608027 C17.933418,6.70608027 18.0941852,6.84524096 18.121285,7.02981197 Z M14.8986164,6.70608027 C14.9385335,6.92690633 14.9235189,7.01223378 15.0352136,9.12784241 L12.8939701,9.12784241 C13.0096932,6.93496295 12.9910163,6.92397663 13.0305673,6.70608027 L14.8986164,6.70608027 Z M10.1821677,6.70608027 L11.6114945,6.70608027 C11.5953812,6.86757989 11.6045365,6.78408347 11.4858837,9.12784241 L9.50211147,9.12784241 L9.80789879,7.02981197 C9.83463227,6.84524096 9.99576569,6.70608027 10.1821677,6.70608027 Z M4.72963232,23.8433527 C4.72963232,19.2814456 8.06912253,15.406553 12.5424062,14.7173413 C12.8331789,14.8975178 13.1722914,14.9963951 13.5172635,14.9963951 L14.4119202,14.9963951 C14.7568922,14.9963951 15.0960049,14.8975178 15.3864113,14.7173413 C17.4599054,15.0381433 19.3719,16.0653689 20.7953674,17.6287293 C22.1470571,19.1133542 22.9735984,20.9938545 23.159268,22.9801902 C20.4712695,23.3603186 17.9619826,24.6087365 16.032776,26.5386755 C14.2533502,28.3191998 13.0719493,30.534052 12.5907462,32.9781531 C10.9728202,32.7353543 9.43253108,32.0626223 8.12808279,30.9987755 C5.96852858,29.2372941 4.72963232,26.6294961 4.72963232,23.8433527 Z M16.990055,32.5705588 C17.4068047,31.4100319 18.0762408,30.3531431 18.9610098,29.4680079 C19.9651641,28.4653185 21.1754958,27.7449788 22.5088749,27.3491033 C21.5054531,29.7836829 19.4759044,31.703368 16.990055,32.5705588 Z M23.4844646,25.6974857 C23.4727458,25.6989506 23.461027,25.7007816 23.4496744,25.7026127 C21.3626304,26.0175553 19.4671153,26.9752006 17.9667433,28.4733752 C16.7161283,29.7239904 15.834289,31.2701388 15.3981301,32.9682654 C15.379087,32.9711951 15.360044,32.9741248 15.3410009,32.9770545 C14.9008137,33.0426065 14.4536684,33.0766642 14.0054245,33.0788616 C14.4533022,30.9768028 15.4885845,29.0721323 17.0274087,27.532942 C18.8822742,25.6769779 21.3410238,24.5307332 23.9521177,24.3047802 C23.9572447,24.304414 23.9623717,24.3036816 23.9671325,24.3033154 C24.9965553,24.2150582 26.0322038,24.2692576 27.0462458,24.4644488 C27.8980556,24.6285119 28.7271604,24.8918186 29.5174465,25.2488756 L29.4980373,26.7184857 C28.7322873,26.3156522 27.9170987,26.0171891 27.062359,25.8282235 C25.8820568,25.5656493 24.6779506,25.5217038 23.4844646,25.6974857 L23.4844646,25.6974857 Z M30.8837848,41.3885856 C29.2914936,42.9812431 27.1747863,43.8583216 24.9229466,43.8583216 L24.9225804,43.8583216 C22.6707407,43.8583216 20.5536672,42.9812431 18.9610098,41.3885856 C17.8722606,40.3005688 17.1149335,38.9627951 16.7457914,37.4873256 C21.9265973,36.4340989 26.0882343,32.4940204 27.4289377,27.3784003 C28.152207,27.6021561 28.8381227,27.9214932 29.476797,28.3323835 L29.4753322,28.4426134 C29.4643458,29.2523089 29.8887859,29.6683261 30.6105904,30.3483824 C30.9445761,30.6820019 31.4125954,30.8812214 31.9080807,30.8757282 L32.0186768,30.873897 C34.1610189,34.1969078 33.7087468,38.5639899 30.8837848,41.3885856 L30.8837848,41.3885856 Z M38.5416509,27.4197823 L37.3426717,29.0278207 L36.0360261,27.7208089 C37.5503141,26.0453874 37.4756068,26.132546 37.5602019,26.0314714 L38.5097904,26.98106 C38.6269784,27.0982479 38.6405282,27.2868473 38.5416509,27.4197823 L38.5416509,27.4197823 Z" id="Shape"></path>
                        <path d="M21.0000801,4.9618109 C21.1798904,4.9618109 21.3600669,4.89296298 21.4973965,4.75563333 L23.3138097,2.93922015 C23.5884689,2.66456095 23.5884689,2.21924675 23.3138097,1.94458754 C23.0391504,1.67029443 22.5942024,1.67029443 22.3195432,1.94458754 L20.5027637,3.76136691 C20.2281045,4.03602611 20.2281045,4.48097412 20.5027637,4.75563333 C20.6400934,4.89296298 20.8199036,4.9618109 21.0000801,4.9618109 Z" id="Path"></path>
                        <path d="M21.6816012,6.94045616 C21.6816012,7.32900743 21.9961777,7.64358385 22.3847289,7.64358385 L24.5552695,7.64358385 C24.9438207,7.64358385 25.2583971,7.32900743 25.2583971,6.94045616 C25.2583971,6.55227109 24.9438207,6.23732848 24.5552695,6.23732848 L22.3847289,6.23732848 C21.9961777,6.23732848 21.6816012,6.55227109 21.6816012,6.94045616 Z" id="Path"></path>
                        <path d="M18.3175748,3.57679589 C18.706126,3.57679589 19.0207025,3.26221948 19.0207025,2.87366821 L19.0207025,0.703127682 C19.0207025,0.314576419 18.706126,0 18.3175748,0 C17.9293897,0 17.6144471,0.314576419 17.6144471,0.703127682 L17.6144471,2.87366821 C17.6144471,3.26221948 17.9293897,3.57679589 18.3175748,3.57679589 Z" id="Path"></path>
                    </g>
                </g>
            </g>
        </g>
    </g>
</svg>