<svg id="color" enable-background="new 0 0 24 24" height="512" viewBox="0 0 24 24" width="512" xmlns="http://www.w3.org/2000/svg"><path d="m24 3v9.72c-.57-.649-1.25-1.21-2-1.64v-6.08h-20v14c0 .55.45 1 1 1h7.25c.19.71.47 1.38.83 2h-8.08c-1.65 0-3-1.35-3-3v-16c0-1.65 1.35-3 3-3h18c1.65 0 3 1.35 3 3z" fill="#607d8b"/><path d="m2 5v14c0 .55.45 1 1 1h7.25c-.16-.64-.25-1.31-.25-2 0-4.41 3.59-8 8-8 1.45 0 2.82.39 4 1.08v-6.08zm5 13h-2c-.55 0-1-.45-1-1s.45-1 1-1h2c.55 0 1 .45 1 1s-.45 1-1 1zm2-4h-4c-.55 0-1-.45-1-1s.45-1 1-1h4c.55 0 1 .45 1 1s-.45 1-1 1zm4-4h-8c-.55 0-1-.45-1-1s.45-1 1-1h8c.55 0 1 .45 1 1s-.45 1-1 1z" fill="#fff"/><path d="m12 0h-9c-1.65 0-3 1.35-3 3v16c0 1.65 1.35 3 3 3h8.08c-.36-.62-.64-1.29-.83-2h-7.25c-.55 0-1-.45-1-1v-14h10z" fill="#546d79"/><path d="m5 18c-.55 0-1-.45-1-1s.45-1 1-1h2c.55 0 1 .45 1 1s-.45 1-1 1zm0-4c-.55 0-1-.45-1-1s.45-1 1-1h4c.55 0 1 .45 1 1s-.45 1-1 1zm7-9h-10v14c0 .55.45 1 1 1h7.25c-.16-.64-.25-1.31-.25-2 0-2.024.756-3.875 2-5.285v-2.715h-7c-.55 0-1-.45-1-1s.45-1 1-1h7z" fill="#dedede"/><g fill="#607d8b"><path d="m7 16c.55 0 1 .45 1 1s-.45 1-1 1h-2c-.55 0-1-.45-1-1s.45-1 1-1z"/><path d="m9 14h-4c-.55 0-1-.45-1-1s.45-1 1-1h4c.55 0 1 .45 1 1s-.45 1-1 1z"/><path d="m14 9c0 .55-.45 1-1 1h-8c-.55 0-1-.45-1-1s.45-1 1-1h8c.55 0 1 .45 1 1z"/></g><path d="m8 17c0 .55-.45 1-1 1h-2c-.55 0-1-.45-1-1s.45-1 1-1h2c.55 0 1 .45 1 1z" fill="#fff"/><path d="m10 13c0 .55-.45 1-1 1h-4c-.55 0-1-.45-1-1s.45-1 1-1h4c.55 0 1 .45 1 1z" fill="#fff"/><path d="m14 9c0 .55-.45 1-1 1h-8c-.55 0-1-.45-1-1s.45-1 1-1h8c.55 0 1 .45 1 1z" fill="#fff"/><path d="m14 9c0 .55-.45 1-1 1h-8c-.55 0-1-.45-1-1s.45-1 1-1h8c.55 0 1 .45 1 1z" fill="#90a4ae"/><path d="m10 13c0 .55-.45 1-1 1h-4c-.55 0-1-.45-1-1s.45-1 1-1h4c.55 0 1 .45 1 1z" fill="#90a4ae"/><path d="m8 17c0 .55-.45 1-1 1h-2c-.55 0-1-.45-1-1s.45-1 1-1h2c.55 0 1 .45 1 1z" fill="#90a4ae"/><path d="m6 8h-1c-.55 0-1 .45-1 1s.45 1 1 1h1z" fill="#7d8f97"/><path d="m6 12h-1c-.55 0-1 .45-1 1s.45 1 1 1h1z" fill="#7d8f97"/><path d="m6 16h-1c-.55 0-1 .45-1 1s.45 1 1 1h1z" fill="#7d8f97"/><path d="m18 12c-3.309 0-6 2.691-6 6s2.691 6 6 6 6-2.691 6-6-2.691-6-6-6z" fill="#4caf50"/><path d="m21.232 16.931-3.25 3.5c-.196.212-.464.319-.732.319-.23 0-.463-.08-.65-.24l-1.75-1.5c-.42-.359-.469-.991-.109-1.41.361-.419.992-.469 1.41-.109l1.021.875 2.597-2.796c.376-.404 1.008-.428 1.413-.052.403.375.426 1.007.05 1.413z" fill="#fff"/><path d="m18 12c-3.309 0-6 2.691-6 6s2.691 6 6 6v-3.588l-.018.019c-.196.212-.464.319-.732.319-.23 0-.463-.08-.65-.24l-1.75-1.5c-.42-.359-.469-.991-.109-1.41.199-.231.48-.35.762-.35.23 0 .46.079.648.24l1.021.875.828-.892z" fill="#429846"/><path d="m15.502 17.25c-.282 0-.563.119-.762.35-.359.419-.311 1.051.109 1.41l1.75 1.5c.187.16.42.24.65.24.269 0 .536-.107.732-.319l.019-.019v-2.939l-.829.893-1.021-.876c-.187-.161-.418-.24-.648-.24z" fill="#dedede"/></svg>