<?xml version="1.0" encoding="utf-8"?>
<!-- Generator: Adobe Illustrator 24.0.2, SVG Export Plug-In . SVG Version: 6.00 Build 0)  -->
<svg version="1.1" id="Layer_1" xmlns="http://www.w3.org/2000/svg" xmlns:xlink="http://www.w3.org/1999/xlink" x="0px" y="0px"
	 viewBox="0 0 1000.1 96" style="enable-background:new 0 0 1000.1 96;" xml:space="preserve">
<style type="text/css">
	.st0{fill:#00B67A;}
	.st1{fill:#DCDCE6;}
	.st2{fill:#FFFFFF;}
</style>
<g id="Trustpilot_ratings_4halfstar-RGB">
	<g>
		<rect id="Rectangle-path" x="488.1" class="st0" width="96" height="96"/>
		<rect x="592.1" class="st0" width="96" height="96"/>
		<rect x="696.1" class="st0" width="96" height="96"/>
		<rect x="800.1" class="st0" width="96" height="96"/>
		<g id="Half" transform="translate(416.000000, 0.000000)">
			<rect x="536.1" class="st1" width="48" height="96"/>
			<rect x="488.1" class="st0" width="48" height="96"/>
		</g>
		<path id="Shape" class="st2" d="M536.1,64.7l14.6-3.7l6.1,18.8L536.1,64.7z M569.7,40.4H544l-7.9-24.2l-7.9,24.2h-25.7l20.8,15
			l-7.9,24.2l20.8-15l12.8-9.2L569.7,40.4L569.7,40.4L569.7,40.4L569.7,40.4z"/>
		<path class="st2" d="M640.1,64.7l14.6-3.7l6.1,18.8L640.1,64.7z M673.7,40.4H648l-7.9-24.2l-7.9,24.2h-25.7l20.8,15l-7.9,24.2
			l20.8-15l12.8-9.2L673.7,40.4L673.7,40.4L673.7,40.4L673.7,40.4z"/>
		<path class="st2" d="M744.1,64.7l14.6-3.7l6.1,18.8L744.1,64.7z M777.7,40.4H752l-7.9-24.2l-7.9,24.2h-25.7l20.8,15l-7.9,24.2
			l20.8-15l12.8-9.2L777.7,40.4L777.7,40.4L777.7,40.4L777.7,40.4z"/>
		<path class="st2" d="M848.1,64.7l14.6-3.7l6.1,18.8L848.1,64.7z M881.7,40.4H856l-7.9-24.2l-7.9,24.2h-25.7l20.8,15l-7.9,24.2
			l20.8-15l12.8-9.2L881.7,40.4L881.7,40.4L881.7,40.4L881.7,40.4z"/>
		<path class="st2" d="M952.1,64.7l14.6-3.7l6.1,18.8L952.1,64.7z M985.7,40.4H960l-7.9-24.2l-7.9,24.2h-25.7l20.8,15l-7.9,24.2
			l20.8-15l12.8-9.2L985.7,40.4L985.7,40.4L985.7,40.4L985.7,40.4z"/>
	</g>
</g>
<g>
	<path d="M40,66H29.9V47.8H11.3V66H1.2V21.2h10.1v17.9h18.6V21.2H40V66z"/>
	<path d="M78,52.8H57.1c0.3,4.6,3.3,7,8.8,7c3.5,0,6.6-0.8,9.3-2.5v7.1c-3,1.6-6.8,2.4-11.5,2.4c-5.2,0-9.2-1.4-12-4.3
		c-2.9-2.9-4.3-6.9-4.3-12c0-5.3,1.5-9.5,4.6-12.6c3.1-3.1,6.9-4.7,11.4-4.7c4.7,0,8.3,1.4,10.8,4.2c2.6,2.8,3.8,6.5,3.8,11.3V52.8z
		 M68.9,46.8c0-4.6-1.9-6.9-5.6-6.9c-1.6,0-3,0.7-4.1,2s-1.9,2.9-2.1,4.9H68.9z"/>
	<path d="M104.8,42.9c-1.2-0.6-2.6-1-4.2-1c-2.1,0-3.8,0.8-5,2.4c-1.2,1.6-1.8,3.7-1.8,6.4V66h-9.9V34h9.9v5.9h0.1
		c1.6-4.3,4.4-6.5,8.4-6.5c1,0,1.9,0.1,2.4,0.4V42.9z"/>
	<path d="M142.4,34l-11.9,32h-11.3l-11.3-32h10.6l5.6,19.7c0.6,2.2,1,4.1,1.1,5.7h0.1c0.1-1.5,0.5-3.3,1.2-5.5l5.7-19.9H142.4z"/>
	<path d="M161.2,66.8c-5.3,0-9.5-1.5-12.6-4.5c-3.1-3-4.6-7-4.6-12.2c0-5.3,1.6-9.4,4.8-12.4c3.2-3,7.4-4.5,12.8-4.5
		c5.3,0,9.5,1.5,12.5,4.5c3,3,4.5,6.9,4.5,11.9c0,5.3-1.6,9.5-4.7,12.6C170.9,65.2,166.6,66.8,161.2,66.8z M161.5,40.8
		c-2.3,0-4.1,0.8-5.4,2.4c-1.3,1.6-1.9,3.9-1.9,6.8c0,6.1,2.5,9.2,7.4,9.2c4.7,0,7.1-3.2,7.1-9.5C168.6,43.8,166.3,40.8,161.5,40.8z
		"/>
	<path d="M206,42.9c-1.2-0.6-2.6-1-4.2-1c-2.1,0-3.8,0.8-5,2.4c-1.2,1.6-1.8,3.7-1.8,6.4V66h-9.9V34h9.9v5.9h0.1
		c1.6-4.3,4.4-6.5,8.4-6.5c1,0,1.9,0.1,2.4,0.4V42.9z"/>
	<path d="M231.5,42.9c-1.2-0.6-2.6-1-4.2-1c-2.1,0-3.8,0.8-5,2.4c-1.2,1.6-1.8,3.7-1.8,6.4V66h-9.9V34h9.9v5.9h0.1
		c1.6-4.3,4.4-6.5,8.4-6.5c1,0,1.9,0.1,2.4,0.4V42.9z"/>
	<path d="M262.7,66h-9.3v-4.6h-0.1c-2.1,3.6-5.3,5.4-9.5,5.4c-3.1,0-5.5-0.9-7.3-2.6c-1.8-1.8-2.7-4.1-2.7-7c0-6.2,3.7-9.8,11-10.8
		l8.7-1.2c0-3.5-1.9-5.3-5.7-5.3c-3.8,0-7.4,1.1-10.9,3.4v-7.4c1.4-0.7,3.3-1.3,5.6-1.9c2.4-0.5,4.6-0.8,6.5-0.8
		c9.1,0,13.7,4.6,13.7,13.7V66z M253.4,53v-2.2l-5.8,0.8c-3.2,0.4-4.8,1.9-4.8,4.3c0,1.1,0.4,2,1.2,2.8s1.8,1.1,3.2,1.1
		c1.9,0,3.4-0.6,4.5-1.9C252.8,56.6,253.4,55,253.4,53z"/>
	<path d="M301.9,62.3c0,5.9-1.7,10.5-5.2,13.8c-3.4,3.3-8.4,4.9-14.9,4.9c-4.3,0-7.7-0.6-10.3-1.8v-8.3c3.3,1.9,6.6,2.9,10,2.9
		c3.3,0,5.9-0.9,7.8-2.6c1.8-1.8,2.8-4.2,2.8-7.2v-2.5h-0.1c-2.3,3.6-5.6,5.4-10,5.4c-4.1,0-7.3-1.4-9.7-4.3
		c-2.4-2.9-3.6-6.7-3.6-11.6c0-5.4,1.3-9.7,4-12.9c2.7-3.2,6.2-4.8,10.5-4.8c3.9,0,6.8,1.5,8.8,4.5h0.1V34h9.9V62.3z M292.1,50.6
		v-2.5c0-2-0.6-3.7-1.8-5.2c-1.2-1.4-2.8-2.1-4.7-2.1c-2.2,0-3.9,0.9-5.2,2.6c-1.3,1.7-1.9,4.1-1.9,7.2c0,2.7,0.6,4.8,1.8,6.3
		c1.2,1.6,2.8,2.3,4.9,2.3c2,0,3.7-0.8,5-2.4C291.5,55.3,292.1,53.2,292.1,50.6z"/>
	<path d="M338.9,52.8H318c0.3,4.6,3.3,7,8.8,7c3.5,0,6.6-0.8,9.3-2.5v7.1c-3,1.6-6.8,2.4-11.5,2.4c-5.2,0-9.2-1.4-12-4.3
		c-2.9-2.9-4.3-6.9-4.3-12c0-5.3,1.5-9.5,4.6-12.6c3.1-3.1,6.9-4.7,11.4-4.7c4.7,0,8.3,1.4,10.8,4.2c2.6,2.8,3.8,6.5,3.8,11.3V52.8z
		 M329.7,46.8c0-4.6-1.9-6.9-5.6-6.9c-1.6,0-3,0.7-4.1,2s-1.9,2.9-2.1,4.9H329.7z"/>
	<path d="M375.6,66h-9.8V48.2c0-5-1.8-7.4-5.3-7.4c-1.7,0-3.1,0.7-4.2,2c-1.1,1.3-1.7,3-1.7,5V66h-9.9V34h9.9v5.1h0.1
		c2.4-3.9,5.8-5.8,10.3-5.8c7.1,0,10.6,4.4,10.6,13.2V66z"/>
	<path d="M414.8,66h-9.9v-4.4h-0.1c-2.3,3.5-5.6,5.2-9.9,5.2c-4,0-7.2-1.4-9.7-4.2c-2.4-2.8-3.7-6.8-3.7-11.8c0-5.3,1.3-9.5,4-12.7
		s6.2-4.8,10.6-4.8c4.1,0,7,1.5,8.6,4.4h0.1v-19h9.9V66z M405.1,50.4V48c0-2.1-0.6-3.8-1.8-5.2c-1.2-1.4-2.8-2.1-4.7-2.1
		c-2.2,0-3.9,0.9-5.1,2.6c-1.2,1.7-1.8,4.1-1.8,7.1c0,2.8,0.6,5,1.8,6.5c1.2,1.5,2.8,2.3,4.9,2.3c2,0,3.6-0.8,4.9-2.4
		C404.4,55.2,405.1,53.1,405.1,50.4z"/>
</g>
</svg>
