<?xml version="1.0" encoding="utf-8"?>
<svg width="68px" height="68px" viewBox="0 0 68 68" version="1.1" xmlns:xlink="http://www.w3.org/1999/xlink" xmlns="http://www.w3.org/2000/svg">
  <desc>Created with Lunacy</desc>
  <g id="yourself_icon" transform="translate(0.5 0.5)">
    <path d="M7.47201 67L59.5415 67C65.8496 67 69.2176 59.688 65.3665 54.8804L62.4306 51.2084C61.8981 50.5423 60.9262 50.434 60.2603 50.9669C59.5942 51.4997 59.4859 52.4716 60.0186 53.1378L62.9554 56.811C65.2109 59.6264 63.2357 63.9112 59.5415 63.9112C53.579 63.9112 49.1097 63.9188 45.7551 63.9245C36.164 63.9408 35.6862 63.9416 35.4796 63.7053C35.4499 63.6713 35.4258 63.6324 35.3809 63.5878C35.3319 63.5384 35.2895 63.5035 35.253 63.4634C35.0197 63.2073 35.0211 62.7376 35.0375 56.9364C35.0433 54.8966 35.051 52.1976 35.051 48.6169C37.3725 49.8077 38.1345 54.8962 38.1393 57.4668C38.1393 58.3198 38.8307 59.0113 39.6835 59.0113L53.2876 59.0113C54.572 59.0113 55.2973 57.5261 54.5021 56.5129L47.0749 47.0514C46.5485 46.3807 45.578 46.2631 44.9068 46.79C44.2359 47.3167 44.1191 48.2876 44.6455 48.9585L46.9421 51.8843C46.5867 53.2172 46.3001 54.4688 46.0692 55.9224L41.1609 55.9224C40.7544 50.6636 38.7059 44.9781 33.5068 45.2679C28.3063 44.9789 26.2603 50.6539 25.853 55.9224L20.9447 55.9224C20.7138 54.4688 20.4272 53.2174 20.0718 51.8843L22.3684 48.9585C22.8949 48.2874 22.778 47.3167 22.107 46.79C21.4359 46.2631 20.4652 46.3803 19.939 47.0514L12.5118 56.5129C11.7187 57.5234 12.4386 59.0113 13.7263 59.0113L27.3304 59.0113C28.182 59.0113 28.873 58.3202 28.8745 57.4682C28.8794 54.8783 29.6462 49.8052 31.9629 48.6169C31.9629 52.1954 31.9704 54.8933 31.976 56.9327C31.9921 62.7464 31.9934 63.2082 31.7641 63.4599C31.7289 63.4984 31.6884 63.532 31.6417 63.5792C31.5936 63.6269 31.5694 63.6683 31.5388 63.7043C31.3365 63.9424 30.8532 63.9415 21.3204 63.9249C17.9583 63.919 13.4705 63.9112 7.47239 63.9112C3.78068 63.9112 1.80125 59.6284 4.0594 56.8099L16.5816 41.1476C19.7338 38.8961 23.4437 37.7072 27.3207 37.7072C29.2032 37.7072 30.9066 37.6895 32.4623 37.6733C41.2853 37.5814 45.3538 37.539 50.3672 41.0644L52.1276 43.2682C52.6599 43.9348 53.632 44.0433 54.2977 43.5107C54.964 42.9782 55.0727 42.0063 54.5403 41.3399C52.5269 38.8195 52.5839 38.8527 52.3406 38.6778C48.9257 36.2187 44.8756 34.8219 40.6837 34.6401C41.9625 33.2417 42.3026 32.1046 43.5933 29.1761C44.9491 26.0875 45.7003 22.7134 45.7003 19.2168C45.7003 15.601 43.8282 12.1122 40.3763 9.93774C40.3763 9.56247 40.3812 9.19847 40.3859 8.84439C40.4216 6.1956 40.4497 4.10267 38.364 2.00854C34.0685 -2.27047 26.637 0.724874 26.637 6.87136L26.637 9.93774C23.4242 11.9616 21.3129 15.328 21.3129 19.2168C21.3129 22.6402 22.0219 25.991 23.4209 29.1782C24.8151 32.3415 25.1122 33.3095 26.3321 34.6424C21.9208 34.8409 17.8395 36.3765 14.5866 38.7785C14.5702 38.7907 14.5583 38.7979 14.5467 38.8055C14.3796 38.9149 14.2629 39.1011 1.64799 54.8792C-2.28423 59.788 1.28241 67 7.47201 67ZM36.1804 4.19283C33.8049 1.82648 29.7256 3.5175 29.7256 6.87136L29.7254 6.87136L29.7254 8.5396C32.1845 7.80461 34.8331 7.80577 37.2879 8.5396C37.2879 8.34148 37.2905 8.14842 37.293 7.95989C37.3119 6.52048 37.3274 5.34473 36.1804 4.19283ZM27.0142 13.5117C31.6245 9.31995 39.5341 10.7619 41.9642 16.196C37.7676 15.3332 35.1209 17.0374 32.9224 18.4554C30.3776 20.0976 28.4978 21.3086 24.4022 19.2697C24.4021 16.9725 25.3913 14.9873 27.0142 13.5117ZM34.5962 21.0513C31.378 23.1277 28.822 24.2494 24.6968 22.7543C25.2309 25.9408 26.189 27.8005 27.6182 31.043C29.7055 35.7903 37.3061 35.7952 39.3949 31.0441C40.8216 27.8071 42.5252 24.5971 42.6076 19.5651C38.8581 18.3048 36.87 19.5842 34.5962 21.0513ZM17.6374 54.9852C17.7 55.2909 17.7587 55.6023 17.8143 55.9224L16.9018 55.9224L17.6374 54.9852ZM50.1116 55.9224L49.376 54.9852C49.3137 55.2909 49.2548 55.6021 49.1992 55.9224L50.1116 55.9224Z" id="Shape" fill="#32383A" fill-rule="evenodd" stroke="none" />
    <path d="M0.525431 2.48915C1.00685 3.07836 1.88175 3.17072 2.48013 2.69916C3.07886 2.22691 3.17445 1.36726 2.69373 0.778915L2.47457 0.510863C1.99385 -0.0774852 1.11895 -0.171389 0.51987 0.300861C-0.0788619 0.77311 -0.17445 1.63275 0.306273 2.2211L0.525431 2.48915Z" transform="translate(56 46)" id="Path" fill="#32383A" stroke="none" />
  </g>
</svg>